<?xml version="1.0" encoding="iso-8859-1"?>
<!-- Uploaded to: SVG Repo, www.svgrepo.com, Generator: SVG Repo Mixer Tools -->
<svg height="800px" width="800px" version="1.1" id="Layer_1" xmlns="http://www.w3.org/2000/svg" xmlns:xlink="http://www.w3.org/1999/xlink" 
	 viewBox="0 0 512.002 512.002" xml:space="preserve">
<path style="fill:#FFA81F;" d="M376.55,348.512c-4.727-2.619-10.471-2.619-15.196,0c-14.388,7.972-31.289,12.185-48.878,12.185
	c-17.589,0-34.491-4.213-48.878-12.185c-4.727-2.619-10.47-2.619-15.198,0c-14.386,7.972-31.287,12.185-48.878,12.185
	c-17.59,0-34.491-4.213-48.876-12.183c-4.726-2.621-10.47-2.619-15.197-0.002c-14.387,7.972-31.29,12.185-48.878,12.185
	c-18.043,0-35.315-4.457-49.782-12.699c0.267,0.381,0.547,0.758,0.852,1.12l86.311,102.305c2.98,3.53,7.363,5.567,11.983,5.567
	h240.123c4.62,0,9.004-2.037,11.983-5.569l86.31-102.303c0.306-0.362,0.586-0.739,0.853-1.118c0.105-0.062,0.206-0.124,0.313-0.186
	c-14.53,8.357-31.919,12.883-50.094,12.883C407.84,360.698,390.937,356.483,376.55,348.512z"/>
<path style="fill:#FF0536;" d="M477.307,233.828c3.146-10.005,4.742-20.247,4.742-30.598c0-40.983-24.483-78.977-68.936-106.985
	C370.909,69.654,315.111,55.01,256.001,55.01c-59.113,0-114.91,14.643-157.114,41.234c-44.454,28.008-68.937,66.002-68.937,106.985
	c0,10.352,1.595,20.594,4.741,30.598C12.973,246.913,0,267.558,0,290.308c0,19.583,9.54,37.73,26.864,51.099
	c3.125,2.413,6.447,4.607,9.926,6.592h0.001c14.467,8.243,31.739,12.699,49.782,12.699c17.588,0,34.491-4.213,48.878-12.185
	c4.727-2.617,10.471-2.619,15.197,0.002c14.385,7.97,31.286,12.183,48.876,12.183c17.591,0,34.492-4.213,48.878-12.185
	c4.728-2.619,10.471-2.619,15.198,0c14.387,7.972,31.289,12.185,48.878,12.185c17.589,0,34.489-4.213,48.878-12.185
	c4.725-2.619,10.469-2.619,15.196,0c14.388,7.972,31.291,12.185,48.878,12.185c18.175,0,35.563-4.526,50.094-12.883
	c3.365-1.936,6.586-4.067,9.617-6.408c17.321-13.369,26.863-31.515,26.863-51.099C512,267.558,499.025,246.911,477.307,233.828z"/>
<path style="opacity:0.15;enable-background:new    ;" d="M477.307,233.828c3.146-10.005,4.742-20.247,4.742-30.598
	c0-40.983-24.483-78.977-68.936-106.985C370.909,69.654,315.111,55.01,256.001,55.01v401.981h120.061
	c4.62,0,9.004-2.037,11.983-5.569l86.31-102.303c0.306-0.362,0.586-0.739,0.853-1.118c0.105-0.062,0.206-0.124,0.313-0.186
	c3.365-1.936,6.586-4.067,9.617-6.408C502.458,328.038,512,309.892,512,290.309C512,267.558,499.025,246.911,477.307,233.828z"/>
</svg>